<mxfile host="app.diagrams.net" agent="Mozilla/5.0 (X11; Linux x86_64) AppleWebKit/537.36 (KHTML, like Gecko) Chrome/138.0.0.0 Safari/537.36" version="28.1.0" pages="6">
  <diagram id="NMhR2VgDH_q-dbBwxF6J" name="Core">
    <mxGraphModel dx="1231" dy="692" grid="1" gridSize="10" guides="1" tooltips="1" connect="1" arrows="1" fold="1" page="1" pageScale="1" pageWidth="827" pageHeight="1169" math="0" shadow="0">
      <root>
        <mxCell id="0" />
        <mxCell id="1" style="" parent="0" />
        <mxCell id="9GTtef4TDPM2n8hx87Pq-6" value="uml" style="" parent="0" />
        <mxCell id="9GTtef4TDPM2n8hx87Pq-7" style="edgeStyle=orthogonalEdgeStyle;rounded=0;orthogonalLoop=1;jettySize=auto;html=1;entryX=0.75;entryY=0;entryDx=0;entryDy=0;strokeWidth=2;exitX=0.25;exitY=1;exitDx=0;exitDy=0;fillColor=#1ba1e2;strokeColor=#006EAF;" parent="9GTtef4TDPM2n8hx87Pq-6" source="9GTtef4TDPM2n8hx87Pq-9" target="9GTtef4TDPM2n8hx87Pq-71" edge="1">
          <mxGeometry relative="1" as="geometry">
            <mxPoint x="610" y="230" as="targetPoint" />
            <Array as="points">
              <mxPoint x="615" y="230" />
            </Array>
          </mxGeometry>
        </mxCell>
        <mxCell id="9GTtef4TDPM2n8hx87Pq-8" value="R1" style="edgeLabel;html=1;align=center;verticalAlign=middle;resizable=0;points=[];" parent="9GTtef4TDPM2n8hx87Pq-7" vertex="1" connectable="0">
          <mxGeometry relative="1" as="geometry">
            <mxPoint as="offset" />
          </mxGeometry>
        </mxCell>
        <mxCell id="9GTtef4TDPM2n8hx87Pq-9" value="REG BANK" style="rounded=0;whiteSpace=wrap;html=1;direction=north;textDirection=vertical-lr;" parent="9GTtef4TDPM2n8hx87Pq-6" vertex="1">
          <mxGeometry x="440" y="140" width="60" height="120" as="geometry" />
        </mxCell>
        <mxCell id="9GTtef4TDPM2n8hx87Pq-10" style="edgeStyle=orthogonalEdgeStyle;rounded=0;orthogonalLoop=1;jettySize=auto;html=1;strokeWidth=2;entryX=0.75;entryY=0;entryDx=0;entryDy=0;strokeColor=#2D7600;fillColor=#60a917;" parent="9GTtef4TDPM2n8hx87Pq-6" source="9GTtef4TDPM2n8hx87Pq-74" target="9GTtef4TDPM2n8hx87Pq-20" edge="1">
          <mxGeometry relative="1" as="geometry">
            <mxPoint x="570" y="200" as="targetPoint" />
            <Array as="points">
              <mxPoint x="400" y="155" />
              <mxPoint x="400" y="120" />
              <mxPoint x="590" y="120" />
              <mxPoint x="590" y="140" />
            </Array>
          </mxGeometry>
        </mxCell>
        <mxCell id="9GTtef4TDPM2n8hx87Pq-11" style="edgeStyle=orthogonalEdgeStyle;rounded=0;orthogonalLoop=1;jettySize=auto;html=1;" parent="9GTtef4TDPM2n8hx87Pq-6" edge="1">
          <mxGeometry relative="1" as="geometry">
            <mxPoint x="440" y="185" as="targetPoint" />
            <mxPoint x="300" y="185" as="sourcePoint" />
          </mxGeometry>
        </mxCell>
        <mxCell id="9GTtef4TDPM2n8hx87Pq-12" value="RS1" style="edgeLabel;html=1;align=center;verticalAlign=middle;resizable=0;points=[];" parent="9GTtef4TDPM2n8hx87Pq-11" vertex="1" connectable="0">
          <mxGeometry relative="1" as="geometry">
            <mxPoint as="offset" />
          </mxGeometry>
        </mxCell>
        <mxCell id="9GTtef4TDPM2n8hx87Pq-13" style="edgeStyle=orthogonalEdgeStyle;rounded=0;orthogonalLoop=1;jettySize=auto;html=1;exitX=0.368;exitY=-0.013;exitDx=0;exitDy=0;entryX=0.632;entryY=0.013;entryDx=0;entryDy=0;entryPerimeter=0;exitPerimeter=0;" parent="9GTtef4TDPM2n8hx87Pq-6" edge="1">
          <mxGeometry relative="1" as="geometry">
            <mxPoint x="300" y="200" as="sourcePoint" />
            <mxPoint x="440" y="200" as="targetPoint" />
          </mxGeometry>
        </mxCell>
        <mxCell id="9GTtef4TDPM2n8hx87Pq-14" value="RS2" style="edgeLabel;html=1;align=center;verticalAlign=middle;resizable=0;points=[];" parent="9GTtef4TDPM2n8hx87Pq-13" vertex="1" connectable="0">
          <mxGeometry relative="1" as="geometry">
            <mxPoint as="offset" />
          </mxGeometry>
        </mxCell>
        <mxCell id="9GTtef4TDPM2n8hx87Pq-15" style="edgeStyle=orthogonalEdgeStyle;rounded=0;orthogonalLoop=1;jettySize=auto;html=1;entryX=1;entryY=0.75;entryDx=0;entryDy=0;" parent="9GTtef4TDPM2n8hx87Pq-6" target="9GTtef4TDPM2n8hx87Pq-33" edge="1">
          <mxGeometry relative="1" as="geometry">
            <mxPoint x="697" y="300" as="sourcePoint" />
          </mxGeometry>
        </mxCell>
        <mxCell id="9GTtef4TDPM2n8hx87Pq-16" value="ALU OP" style="edgeLabel;html=1;align=center;verticalAlign=middle;resizable=0;points=[];" parent="9GTtef4TDPM2n8hx87Pq-15" vertex="1" connectable="0">
          <mxGeometry relative="1" as="geometry">
            <mxPoint as="offset" />
          </mxGeometry>
        </mxCell>
        <mxCell id="9GTtef4TDPM2n8hx87Pq-17" style="edgeStyle=orthogonalEdgeStyle;rounded=0;orthogonalLoop=1;jettySize=auto;html=1;" parent="9GTtef4TDPM2n8hx87Pq-6" source="9GTtef4TDPM2n8hx87Pq-73" target="9GTtef4TDPM2n8hx87Pq-37" edge="1">
          <mxGeometry relative="1" as="geometry" />
        </mxCell>
        <mxCell id="9GTtef4TDPM2n8hx87Pq-18" value="(many&amp;nbsp;&lt;div&gt;data&amp;nbsp;&lt;/div&gt;&lt;div&gt;signals)&lt;/div&gt;" style="edgeLabel;html=1;align=center;verticalAlign=middle;resizable=0;points=[];" parent="9GTtef4TDPM2n8hx87Pq-17" vertex="1" connectable="0">
          <mxGeometry relative="1" as="geometry">
            <mxPoint as="offset" />
          </mxGeometry>
        </mxCell>
        <mxCell id="9GTtef4TDPM2n8hx87Pq-19" style="edgeStyle=orthogonalEdgeStyle;rounded=0;orthogonalLoop=1;jettySize=auto;html=1;exitX=0.5;exitY=1;exitDx=0;exitDy=0;entryX=0.25;entryY=1;entryDx=0;entryDy=0;strokeWidth=2;strokeColor=#2D7600;fillColor=#60a917;" parent="9GTtef4TDPM2n8hx87Pq-6" source="9GTtef4TDPM2n8hx87Pq-20" target="9GTtef4TDPM2n8hx87Pq-33" edge="1">
          <mxGeometry relative="1" as="geometry">
            <Array as="points">
              <mxPoint x="660" y="155" />
              <mxPoint x="660" y="170" />
            </Array>
          </mxGeometry>
        </mxCell>
        <mxCell id="9GTtef4TDPM2n8hx87Pq-20" value="B" style="verticalLabelPosition=middle;verticalAlign=middle;html=1;shape=trapezoid;perimeter=trapezoidPerimeter;whiteSpace=wrap;size=0.1875;arcSize=10;flipV=1;labelPosition=center;align=center;rotation=-90;strokeColor=#2D7600;fillColor=#60a917;fontColor=#ffffff;horizontal=1;textDirection=vertical-lr;" parent="9GTtef4TDPM2n8hx87Pq-6" vertex="1">
          <mxGeometry x="600" y="140" width="60" height="30" as="geometry" />
        </mxCell>
        <mxCell id="9GTtef4TDPM2n8hx87Pq-22" style="edgeStyle=orthogonalEdgeStyle;rounded=0;orthogonalLoop=1;jettySize=auto;html=1;exitX=0.52;exitY=0.68;exitDx=0;exitDy=0;entryX=0.25;entryY=1;entryDx=0;entryDy=0;strokeWidth=2;exitPerimeter=0;" parent="9GTtef4TDPM2n8hx87Pq-6" source="qQvj4Ov0_is3PJ7aHH4r-4" target="9GTtef4TDPM2n8hx87Pq-30" edge="1">
          <mxGeometry relative="1" as="geometry">
            <mxPoint x="805" y="170" as="sourcePoint" />
          </mxGeometry>
        </mxCell>
        <mxCell id="9GTtef4TDPM2n8hx87Pq-23" value="ADDR" style="edgeLabel;html=1;align=center;verticalAlign=middle;resizable=0;points=[];" parent="9GTtef4TDPM2n8hx87Pq-22" vertex="1" connectable="0">
          <mxGeometry x="-0.0839" relative="1" as="geometry">
            <mxPoint as="offset" />
          </mxGeometry>
        </mxCell>
        <mxCell id="9GTtef4TDPM2n8hx87Pq-24" style="edgeStyle=orthogonalEdgeStyle;rounded=0;orthogonalLoop=1;jettySize=auto;html=1;entryX=0.5;entryY=0;entryDx=0;entryDy=0;strokeWidth=2;fillColor=#e51400;strokeColor=#B20000;" parent="9GTtef4TDPM2n8hx87Pq-6" source="qQvj4Ov0_is3PJ7aHH4r-4" target="9GTtef4TDPM2n8hx87Pq-27" edge="1">
          <mxGeometry relative="1" as="geometry">
            <mxPoint x="805" y="200" as="sourcePoint" />
          </mxGeometry>
        </mxCell>
        <mxCell id="9GTtef4TDPM2n8hx87Pq-26" style="edgeStyle=orthogonalEdgeStyle;rounded=0;orthogonalLoop=1;jettySize=auto;html=1;exitX=0.5;exitY=1;exitDx=0;exitDy=0;entryX=0.25;entryY=0;entryDx=0;entryDy=0;strokeWidth=2;fillColor=#e51400;strokeColor=#B20000;" parent="9GTtef4TDPM2n8hx87Pq-6" source="9GTtef4TDPM2n8hx87Pq-27" target="9GTtef4TDPM2n8hx87Pq-9" edge="1">
          <mxGeometry relative="1" as="geometry">
            <Array as="points">
              <mxPoint x="1060" y="200" />
              <mxPoint x="1060" y="320" />
              <mxPoint x="420" y="320" />
              <mxPoint x="420" y="230" />
            </Array>
          </mxGeometry>
        </mxCell>
        <mxCell id="Vy0DsnuzEGaQrnrW-NYJ-18" style="edgeStyle=orthogonalEdgeStyle;rounded=0;orthogonalLoop=1;jettySize=auto;html=1;entryX=0.25;entryY=0;entryDx=0;entryDy=0;strokeWidth=2;fillColor=#e51400;strokeColor=#B20000;" parent="9GTtef4TDPM2n8hx87Pq-6" target="9GTtef4TDPM2n8hx87Pq-27" edge="1">
          <mxGeometry relative="1" as="geometry">
            <mxPoint x="920" y="220" as="sourcePoint" />
          </mxGeometry>
        </mxCell>
        <mxCell id="Vy0DsnuzEGaQrnrW-NYJ-19" value="NEXT_PC" style="edgeLabel;html=1;align=center;verticalAlign=middle;resizable=0;points=[];" parent="Vy0DsnuzEGaQrnrW-NYJ-18" vertex="1" connectable="0">
          <mxGeometry relative="1" as="geometry">
            <mxPoint as="offset" />
          </mxGeometry>
        </mxCell>
        <mxCell id="9GTtef4TDPM2n8hx87Pq-27" value="C" style="verticalLabelPosition=middle;verticalAlign=middle;html=1;shape=trapezoid;perimeter=trapezoidPerimeter;whiteSpace=wrap;size=0.1875;arcSize=10;flipV=1;labelPosition=center;align=center;rotation=-90;flipH=0;fillColor=#e51400;fontColor=#ffffff;strokeColor=#B20000;textDirection=vertical-lr;" parent="9GTtef4TDPM2n8hx87Pq-6" vertex="1">
          <mxGeometry x="970" y="185" width="80" height="30" as="geometry" />
        </mxCell>
        <mxCell id="9GTtef4TDPM2n8hx87Pq-28" style="edgeStyle=orthogonalEdgeStyle;rounded=0;orthogonalLoop=1;jettySize=auto;html=1;exitX=0.75;exitY=1;exitDx=0;exitDy=0;entryX=0.75;entryY=0;entryDx=0;entryDy=0;strokeWidth=2;fillColor=#e51400;strokeColor=#B20000;" parent="9GTtef4TDPM2n8hx87Pq-6" source="9GTtef4TDPM2n8hx87Pq-30" target="9GTtef4TDPM2n8hx87Pq-27" edge="1">
          <mxGeometry relative="1" as="geometry">
            <Array as="points">
              <mxPoint x="910" y="180" />
            </Array>
          </mxGeometry>
        </mxCell>
        <mxCell id="9GTtef4TDPM2n8hx87Pq-29" value="DATA IN" style="edgeLabel;html=1;align=center;verticalAlign=middle;resizable=0;points=[];" parent="9GTtef4TDPM2n8hx87Pq-28" vertex="1" connectable="0">
          <mxGeometry x="-0.4673" relative="1" as="geometry">
            <mxPoint as="offset" />
          </mxGeometry>
        </mxCell>
        <mxCell id="9GTtef4TDPM2n8hx87Pq-30" value="MEM UNIT" style="rounded=0;whiteSpace=wrap;html=1;flipV=0;" parent="9GTtef4TDPM2n8hx87Pq-6" vertex="1">
          <mxGeometry x="790" y="50" width="160" height="40" as="geometry" />
        </mxCell>
        <mxCell id="9GTtef4TDPM2n8hx87Pq-31" style="edgeStyle=orthogonalEdgeStyle;rounded=0;orthogonalLoop=1;jettySize=auto;html=1;exitX=0.75;exitY=1;exitDx=0;exitDy=0;strokeWidth=2;entryX=0;entryY=0.5;entryDx=0;entryDy=0;fillColor=#60a917;strokeColor=#2D7600;" parent="9GTtef4TDPM2n8hx87Pq-6" source="9GTtef4TDPM2n8hx87Pq-9" target="9GTtef4TDPM2n8hx87Pq-30" edge="1">
          <mxGeometry relative="1" as="geometry">
            <mxPoint x="750" as="targetPoint" />
            <Array as="points">
              <mxPoint x="530" y="170" />
              <mxPoint x="530" y="70" />
            </Array>
            <mxPoint x="565" y="145" as="sourcePoint" />
          </mxGeometry>
        </mxCell>
        <mxCell id="9GTtef4TDPM2n8hx87Pq-32" value="DATA OUT" style="edgeLabel;html=1;align=center;verticalAlign=middle;resizable=0;points=[];" parent="9GTtef4TDPM2n8hx87Pq-31" vertex="1" connectable="0">
          <mxGeometry x="0.2002" y="2" relative="1" as="geometry">
            <mxPoint as="offset" />
          </mxGeometry>
        </mxCell>
        <mxCell id="qQvj4Ov0_is3PJ7aHH4r-5" value="" style="edgeStyle=orthogonalEdgeStyle;rounded=0;orthogonalLoop=1;jettySize=auto;html=1;strokeWidth=2;" parent="9GTtef4TDPM2n8hx87Pq-6" source="9GTtef4TDPM2n8hx87Pq-33" target="qQvj4Ov0_is3PJ7aHH4r-4" edge="1">
          <mxGeometry relative="1" as="geometry" />
        </mxCell>
        <UserObject label="A&lt;div&gt;&lt;br&gt;&lt;/div&gt;&lt;div&gt;&lt;br&gt;&lt;/div&gt;&lt;div&gt;&lt;br&gt;&lt;/div&gt;&lt;div&gt;B&lt;/div&gt;" link="data:page/id,zgftMrn5v1HjSXPrjvIS" id="9GTtef4TDPM2n8hx87Pq-33">
          <mxCell style="shape=trapezoid;perimeter=trapezoidPerimeter;whiteSpace=wrap;html=1;fixedSize=1;direction=west;size=30;rotation=-90;labelPosition=center;verticalLabelPosition=middle;align=center;verticalAlign=top;labelBorderColor=none;textShadow=0;flipV=0;flipH=0;horizontal=1;textDirection=vertical-lr;" parent="9GTtef4TDPM2n8hx87Pq-6" vertex="1">
            <mxGeometry x="650" y="170" width="120" height="60" as="geometry" />
          </mxCell>
        </UserObject>
        <mxCell id="9GTtef4TDPM2n8hx87Pq-34" value="" style="triangle;whiteSpace=wrap;html=1;rotation=0;" parent="9GTtef4TDPM2n8hx87Pq-6" vertex="1">
          <mxGeometry x="680" y="190" width="20" height="20" as="geometry" />
        </mxCell>
        <mxCell id="9GTtef4TDPM2n8hx87Pq-35" style="edgeStyle=orthogonalEdgeStyle;rounded=0;orthogonalLoop=1;jettySize=auto;html=1;exitX=1;exitY=0.25;exitDx=0;exitDy=0;strokeWidth=2;entryX=0;entryY=0.5;entryDx=0;entryDy=0;" parent="9GTtef4TDPM2n8hx87Pq-6" source="9GTtef4TDPM2n8hx87Pq-65" target="9GTtef4TDPM2n8hx87Pq-58" edge="1">
          <mxGeometry relative="1" as="geometry">
            <mxPoint x="170" y="200" as="targetPoint" />
            <mxPoint x="77.19999999999982" y="199.83999999999992" as="sourcePoint" />
          </mxGeometry>
        </mxCell>
        <mxCell id="9GTtef4TDPM2n8hx87Pq-36" value="IDATA IN" style="edgeLabel;html=1;align=center;verticalAlign=middle;resizable=0;points=[];" parent="9GTtef4TDPM2n8hx87Pq-35" vertex="1" connectable="0">
          <mxGeometry relative="1" as="geometry">
            <mxPoint as="offset" />
          </mxGeometry>
        </mxCell>
        <mxCell id="9GTtef4TDPM2n8hx87Pq-37" value="CONTROL UNIT" style="ellipse;whiteSpace=wrap;html=1;" parent="9GTtef4TDPM2n8hx87Pq-6" vertex="1">
          <mxGeometry x="210" y="430" width="120" height="80" as="geometry" />
        </mxCell>
        <mxCell id="9GTtef4TDPM2n8hx87Pq-55" value="R" style="edgeStyle=orthogonalEdgeStyle;rounded=0;orthogonalLoop=1;jettySize=auto;html=1;exitX=0.25;exitY=0;exitDx=0;exitDy=0;entryX=0.75;entryY=0;entryDx=0;entryDy=0;" parent="9GTtef4TDPM2n8hx87Pq-6" edge="1">
          <mxGeometry relative="1" as="geometry">
            <mxPoint x="300" y="170" as="sourcePoint" />
            <mxPoint x="440" y="170" as="targetPoint" />
          </mxGeometry>
        </mxCell>
        <mxCell id="9GTtef4TDPM2n8hx87Pq-56" value="RD" style="edgeLabel;html=1;align=center;verticalAlign=middle;resizable=0;points=[];" parent="9GTtef4TDPM2n8hx87Pq-55" vertex="1" connectable="0">
          <mxGeometry relative="1" as="geometry">
            <mxPoint as="offset" />
          </mxGeometry>
        </mxCell>
        <mxCell id="9GTtef4TDPM2n8hx87Pq-57" value="" style="group" parent="9GTtef4TDPM2n8hx87Pq-6" vertex="1" connectable="0">
          <mxGeometry x="160" y="160" width="40" height="80" as="geometry" />
        </mxCell>
        <mxCell id="9GTtef4TDPM2n8hx87Pq-58" value="IR" style="rounded=0;whiteSpace=wrap;html=1;container=0;" parent="9GTtef4TDPM2n8hx87Pq-57" vertex="1">
          <mxGeometry width="40" height="80" as="geometry" />
        </mxCell>
        <mxCell id="9GTtef4TDPM2n8hx87Pq-59" value="" style="verticalLabelPosition=bottom;verticalAlign=top;html=1;shape=mxgraph.basic.acute_triangle;dx=0.5;container=0;" parent="9GTtef4TDPM2n8hx87Pq-57" vertex="1">
          <mxGeometry y="60" width="40" height="20" as="geometry" />
        </mxCell>
        <mxCell id="9GTtef4TDPM2n8hx87Pq-60" style="edgeStyle=orthogonalEdgeStyle;rounded=0;orthogonalLoop=1;jettySize=auto;html=1;exitX=1;exitY=0.5;exitDx=0;exitDy=0;entryX=0.5;entryY=1;entryDx=0;entryDy=0;strokeWidth=2;" parent="9GTtef4TDPM2n8hx87Pq-6" source="9GTtef4TDPM2n8hx87Pq-58" target="9GTtef4TDPM2n8hx87Pq-73" edge="1">
          <mxGeometry relative="1" as="geometry" />
        </mxCell>
        <mxCell id="9GTtef4TDPM2n8hx87Pq-65" value="INSTRUCTION MANAGER" style="rounded=0;whiteSpace=wrap;html=1;flipV=0;horizontal=1;textDirection=vertical-lr;" parent="9GTtef4TDPM2n8hx87Pq-6" vertex="1">
          <mxGeometry x="40" y="120" width="40" height="320" as="geometry" />
        </mxCell>
        <mxCell id="9GTtef4TDPM2n8hx87Pq-66" style="edgeStyle=orthogonalEdgeStyle;rounded=0;orthogonalLoop=1;jettySize=auto;html=1;strokeWidth=2;entryX=1;entryY=0.406;entryDx=0;entryDy=0;entryPerimeter=0;" parent="9GTtef4TDPM2n8hx87Pq-6" target="9GTtef4TDPM2n8hx87Pq-65" edge="1">
          <mxGeometry relative="1" as="geometry">
            <mxPoint x="100.00000000000003" y="259.96000000000015" as="targetPoint" />
            <mxPoint x="160" y="250" as="sourcePoint" />
          </mxGeometry>
        </mxCell>
        <mxCell id="9GTtef4TDPM2n8hx87Pq-67" value="NEXT_PC" style="edgeLabel;html=1;align=center;verticalAlign=middle;resizable=0;points=[];" parent="9GTtef4TDPM2n8hx87Pq-66" vertex="1" connectable="0">
          <mxGeometry relative="1" as="geometry">
            <mxPoint as="offset" />
          </mxGeometry>
        </mxCell>
        <mxCell id="9GTtef4TDPM2n8hx87Pq-68" style="edgeStyle=orthogonalEdgeStyle;rounded=0;orthogonalLoop=1;jettySize=auto;html=1;entryX=0.75;entryY=1;entryDx=0;entryDy=0;exitX=0.5;exitY=1;exitDx=0;exitDy=0;strokeWidth=2;fillColor=#1ba1e2;strokeColor=#006EAF;" parent="9GTtef4TDPM2n8hx87Pq-6" source="9GTtef4TDPM2n8hx87Pq-71" target="9GTtef4TDPM2n8hx87Pq-33" edge="1">
          <mxGeometry relative="1" as="geometry">
            <mxPoint x="640" y="245" as="sourcePoint" />
            <Array as="points">
              <mxPoint x="660" y="245" />
              <mxPoint x="660" y="230" />
            </Array>
          </mxGeometry>
        </mxCell>
        <mxCell id="9GTtef4TDPM2n8hx87Pq-69" value="" style="endArrow=classic;html=1;rounded=0;entryX=0.25;entryY=0;entryDx=0;entryDy=0;strokeWidth=2;fillColor=#1ba1e2;strokeColor=#006EAF;" parent="9GTtef4TDPM2n8hx87Pq-6" target="9GTtef4TDPM2n8hx87Pq-71" edge="1">
          <mxGeometry width="50" height="50" relative="1" as="geometry">
            <mxPoint x="590" y="290" as="sourcePoint" />
            <mxPoint x="610" y="260" as="targetPoint" />
            <Array as="points">
              <mxPoint x="590" y="260" />
            </Array>
          </mxGeometry>
        </mxCell>
        <mxCell id="9GTtef4TDPM2n8hx87Pq-70" value="CURRENT_PC" style="edgeLabel;html=1;align=center;verticalAlign=middle;resizable=0;points=[];" parent="9GTtef4TDPM2n8hx87Pq-69" vertex="1" connectable="0">
          <mxGeometry relative="1" as="geometry">
            <mxPoint y="37" as="offset" />
          </mxGeometry>
        </mxCell>
        <mxCell id="9GTtef4TDPM2n8hx87Pq-71" value="A" style="verticalLabelPosition=middle;verticalAlign=middle;html=1;shape=trapezoid;perimeter=trapezoidPerimeter;whiteSpace=wrap;size=0.1875;arcSize=10;flipV=1;labelPosition=center;align=center;rotation=-90;fillColor=#1ba1e2;fontColor=#ffffff;strokeColor=#006EAF;horizontal=1;textDirection=vertical-lr;" parent="9GTtef4TDPM2n8hx87Pq-6" vertex="1">
          <mxGeometry x="600" y="230" width="60" height="30" as="geometry" />
        </mxCell>
        <mxCell id="9GTtef4TDPM2n8hx87Pq-72" value="" style="group" parent="9GTtef4TDPM2n8hx87Pq-6" vertex="1" connectable="0">
          <mxGeometry x="240" y="140" width="60" height="120" as="geometry" />
        </mxCell>
        <mxCell id="9GTtef4TDPM2n8hx87Pq-73" value="DECODER" style="rounded=0;whiteSpace=wrap;html=1;rotation=90;" parent="9GTtef4TDPM2n8hx87Pq-72" vertex="1">
          <mxGeometry x="-30" y="30" width="120" height="60" as="geometry" />
        </mxCell>
        <mxCell id="9GTtef4TDPM2n8hx87Pq-74" value="" style="shape=manualInput;whiteSpace=wrap;html=1;size=13;" parent="9GTtef4TDPM2n8hx87Pq-72" vertex="1">
          <mxGeometry x="50" y="5" width="10" height="20" as="geometry" />
        </mxCell>
        <mxCell id="qQvj4Ov0_is3PJ7aHH4r-2" style="edgeStyle=orthogonalEdgeStyle;rounded=0;orthogonalLoop=1;jettySize=auto;html=1;entryX=0.5;entryY=1;entryDx=0;entryDy=0;strokeWidth=2;" parent="9GTtef4TDPM2n8hx87Pq-6" source="9GTtef4TDPM2n8hx87Pq-80" target="qQvj4Ov0_is3PJ7aHH4r-1" edge="1">
          <mxGeometry relative="1" as="geometry" />
        </mxCell>
        <mxCell id="4lJLPTDTkaCMhp8FfENX-1" value="STEP" style="edgeLabel;html=1;align=center;verticalAlign=middle;resizable=0;points=[];" parent="qQvj4Ov0_is3PJ7aHH4r-2" vertex="1" connectable="0">
          <mxGeometry x="0.1222" relative="1" as="geometry">
            <mxPoint y="-77" as="offset" />
          </mxGeometry>
        </mxCell>
        <mxCell id="9GTtef4TDPM2n8hx87Pq-92" style="edgeStyle=orthogonalEdgeStyle;rounded=0;orthogonalLoop=1;jettySize=auto;html=1;entryX=0.25;entryY=0;entryDx=0;entryDy=0;strokeWidth=2;exitX=0.75;exitY=1;exitDx=0;exitDy=0;fillColor=#60a917;strokeColor=#2D7600;" parent="9GTtef4TDPM2n8hx87Pq-6" source="9GTtef4TDPM2n8hx87Pq-9" target="9GTtef4TDPM2n8hx87Pq-20" edge="1">
          <mxGeometry relative="1" as="geometry">
            <mxPoint x="535" y="160" as="targetPoint" />
            <mxPoint x="510" y="160" as="sourcePoint" />
          </mxGeometry>
        </mxCell>
        <mxCell id="9GTtef4TDPM2n8hx87Pq-93" value="R2" style="edgeLabel;html=1;align=center;verticalAlign=middle;resizable=0;points=[];labelBackgroundColor=default;fontColor=default;textShadow=0;labelBorderColor=none;" parent="9GTtef4TDPM2n8hx87Pq-92" vertex="1" connectable="0">
          <mxGeometry relative="1" as="geometry">
            <mxPoint as="offset" />
          </mxGeometry>
        </mxCell>
        <mxCell id="Vy0DsnuzEGaQrnrW-NYJ-12" value="" style="edgeStyle=orthogonalEdgeStyle;rounded=0;orthogonalLoop=1;jettySize=auto;html=1;strokeWidth=2;" parent="9GTtef4TDPM2n8hx87Pq-6" source="qQvj4Ov0_is3PJ7aHH4r-1" edge="1">
          <mxGeometry relative="1" as="geometry">
            <mxPoint x="1130" y="390" as="targetPoint" />
          </mxGeometry>
        </mxCell>
        <mxCell id="Vy0DsnuzEGaQrnrW-NYJ-17" value="NEXT_PC" style="edgeLabel;html=1;align=center;verticalAlign=middle;resizable=0;points=[];" parent="Vy0DsnuzEGaQrnrW-NYJ-12" vertex="1" connectable="0">
          <mxGeometry relative="1" as="geometry">
            <mxPoint as="offset" />
          </mxGeometry>
        </mxCell>
        <UserObject label="PC UNIT" link="data:page/id,q7t41eLgA-FC6q3BV3qt" id="qQvj4Ov0_is3PJ7aHH4r-1">
          <mxCell style="rounded=0;whiteSpace=wrap;html=1;movable=1;resizable=1;rotatable=1;deletable=1;editable=1;locked=0;connectable=1;" parent="9GTtef4TDPM2n8hx87Pq-6" vertex="1">
            <mxGeometry x="930" y="360" width="120" height="60" as="geometry" />
          </mxCell>
        </UserObject>
        <mxCell id="ppMfh8vbf9BlGN09Ze4M-16" value="" style="edgeStyle=orthogonalEdgeStyle;rounded=0;orthogonalLoop=1;jettySize=auto;html=1;strokeWidth=2;" edge="1" parent="9GTtef4TDPM2n8hx87Pq-6" source="qQvj4Ov0_is3PJ7aHH4r-4" target="ppMfh8vbf9BlGN09Ze4M-15">
          <mxGeometry relative="1" as="geometry" />
        </mxCell>
        <mxCell id="qQvj4Ov0_is3PJ7aHH4r-4" value="" style="shape=waypoint;sketch=0;size=6;pointerEvents=1;points=[];fillColor=default;resizable=0;rotatable=0;perimeter=centerPerimeter;snapToPoint=1;verticalAlign=top;labelBorderColor=none;" parent="9GTtef4TDPM2n8hx87Pq-6" vertex="1">
          <mxGeometry x="820" y="190" width="20" height="20" as="geometry" />
        </mxCell>
        <mxCell id="Vy0DsnuzEGaQrnrW-NYJ-1" style="edgeStyle=orthogonalEdgeStyle;rounded=0;orthogonalLoop=1;jettySize=auto;html=1;entryX=1;entryY=0.5;entryDx=0;entryDy=0;" parent="9GTtef4TDPM2n8hx87Pq-6" source="4lJLPTDTkaCMhp8FfENX-2" target="9GTtef4TDPM2n8hx87Pq-80" edge="1">
          <mxGeometry relative="1" as="geometry" />
        </mxCell>
        <mxCell id="Vy0DsnuzEGaQrnrW-NYJ-5" value="" style="group" parent="9GTtef4TDPM2n8hx87Pq-6" vertex="1" connectable="0">
          <mxGeometry x="720" y="500" width="125" height="60" as="geometry" />
        </mxCell>
        <mxCell id="9GTtef4TDPM2n8hx87Pq-80" value="" style="verticalLabelPosition=middle;verticalAlign=middle;html=1;shape=trapezoid;perimeter=trapezoidPerimeter;whiteSpace=wrap;size=0.1875;arcSize=10;flipV=1;labelPosition=center;align=center;rotation=-90;" parent="Vy0DsnuzEGaQrnrW-NYJ-5" vertex="1">
          <mxGeometry x="80" y="15" width="60" height="30" as="geometry" />
        </mxCell>
        <mxCell id="9GTtef4TDPM2n8hx87Pq-88" style="edgeStyle=orthogonalEdgeStyle;rounded=0;orthogonalLoop=1;jettySize=auto;html=1;entryX=0.75;entryY=0;entryDx=0;entryDy=0;strokeWidth=2;" parent="Vy0DsnuzEGaQrnrW-NYJ-5" target="9GTtef4TDPM2n8hx87Pq-80" edge="1">
          <mxGeometry relative="1" as="geometry">
            <mxPoint x="80" y="14.519999999999982" as="targetPoint" />
            <mxPoint y="15" as="sourcePoint" />
          </mxGeometry>
        </mxCell>
        <mxCell id="9GTtef4TDPM2n8hx87Pq-89" value="&lt;span style=&quot;font-size: 12px;&quot;&gt;INS_SIZE&lt;/span&gt;" style="edgeLabel;html=1;align=center;verticalAlign=middle;resizable=0;points=[];fontColor=default;labelBackgroundColor=default;" parent="9GTtef4TDPM2n8hx87Pq-88" vertex="1" connectable="0">
          <mxGeometry relative="1" as="geometry">
            <mxPoint as="offset" />
          </mxGeometry>
        </mxCell>
        <mxCell id="9GTtef4TDPM2n8hx87Pq-90" style="edgeStyle=orthogonalEdgeStyle;rounded=0;orthogonalLoop=1;jettySize=auto;html=1;strokeWidth=2;entryX=0.25;entryY=0;entryDx=0;entryDy=0;" parent="Vy0DsnuzEGaQrnrW-NYJ-5" target="9GTtef4TDPM2n8hx87Pq-80" edge="1">
          <mxGeometry relative="1" as="geometry">
            <mxPoint x="40" y="-85" as="targetPoint" />
            <mxPoint y="45" as="sourcePoint" />
          </mxGeometry>
        </mxCell>
        <mxCell id="9GTtef4TDPM2n8hx87Pq-91" value="&lt;span style=&quot;font-size: 12px;&quot;&gt;IMM&lt;/span&gt;" style="edgeLabel;html=1;align=center;verticalAlign=middle;resizable=0;points=[];fontColor=default;labelBackgroundColor=default;" parent="9GTtef4TDPM2n8hx87Pq-90" vertex="1" connectable="0">
          <mxGeometry relative="1" as="geometry">
            <mxPoint as="offset" />
          </mxGeometry>
        </mxCell>
        <mxCell id="4lJLPTDTkaCMhp8FfENX-2" value="=0" style="ellipse;whiteSpace=wrap;html=1;aspect=fixed;" parent="9GTtef4TDPM2n8hx87Pq-6" vertex="1">
          <mxGeometry x="810" y="430" width="40" height="40" as="geometry" />
        </mxCell>
        <mxCell id="Vy0DsnuzEGaQrnrW-NYJ-3" value="" style="endArrow=classic;html=1;rounded=0;entryX=0;entryY=0.5;entryDx=0;entryDy=0;" parent="9GTtef4TDPM2n8hx87Pq-6" target="4lJLPTDTkaCMhp8FfENX-2" edge="1">
          <mxGeometry width="50" height="50" relative="1" as="geometry">
            <mxPoint x="740" y="450" as="sourcePoint" />
            <mxPoint x="670" y="540" as="targetPoint" />
          </mxGeometry>
        </mxCell>
        <mxCell id="Vy0DsnuzEGaQrnrW-NYJ-21" value="NEGATE" style="edgeLabel;html=1;align=center;verticalAlign=middle;resizable=0;points=[];" parent="Vy0DsnuzEGaQrnrW-NYJ-3" vertex="1" connectable="0">
          <mxGeometry x="-0.36" y="-3" relative="1" as="geometry">
            <mxPoint x="8" y="-3" as="offset" />
          </mxGeometry>
        </mxCell>
        <mxCell id="ppMfh8vbf9BlGN09Ze4M-13" value="" style="group" vertex="1" connectable="0" parent="9GTtef4TDPM2n8hx87Pq-6">
          <mxGeometry x="1140" y="310" width="220" height="210" as="geometry" />
        </mxCell>
        <mxCell id="ppMfh8vbf9BlGN09Ze4M-2" style="edgeStyle=orthogonalEdgeStyle;rounded=0;orthogonalLoop=1;jettySize=auto;html=1;entryX=0;entryY=0.5;entryDx=0;entryDy=0;labelPosition=left;verticalLabelPosition=middle;align=right;verticalAlign=middle;strokeWidth=2;" edge="1" parent="ppMfh8vbf9BlGN09Ze4M-13" target="ppMfh8vbf9BlGN09Ze4M-1">
          <mxGeometry relative="1" as="geometry">
            <mxPoint y="80" as="sourcePoint" />
          </mxGeometry>
        </mxCell>
        <mxCell id="ppMfh8vbf9BlGN09Ze4M-6" value="NEXT_PC" style="edgeLabel;html=1;align=center;verticalAlign=middle;resizable=0;points=[];" vertex="1" connectable="0" parent="ppMfh8vbf9BlGN09Ze4M-2">
          <mxGeometry relative="1" as="geometry">
            <mxPoint as="offset" />
          </mxGeometry>
        </mxCell>
        <mxCell id="ppMfh8vbf9BlGN09Ze4M-3" style="edgeStyle=orthogonalEdgeStyle;rounded=0;orthogonalLoop=1;jettySize=auto;html=1;exitX=1;exitY=0.5;exitDx=0;exitDy=0;strokeWidth=2;" edge="1" parent="ppMfh8vbf9BlGN09Ze4M-13" source="ppMfh8vbf9BlGN09Ze4M-1">
          <mxGeometry relative="1" as="geometry">
            <mxPoint x="220" y="80" as="targetPoint" />
          </mxGeometry>
        </mxCell>
        <mxCell id="ppMfh8vbf9BlGN09Ze4M-5" value="CURRENT_PC" style="edgeLabel;html=1;align=center;verticalAlign=middle;resizable=0;points=[];" vertex="1" connectable="0" parent="ppMfh8vbf9BlGN09Ze4M-3">
          <mxGeometry relative="1" as="geometry">
            <mxPoint as="offset" />
          </mxGeometry>
        </mxCell>
        <mxCell id="ppMfh8vbf9BlGN09Ze4M-4" style="edgeStyle=orthogonalEdgeStyle;rounded=0;orthogonalLoop=1;jettySize=auto;html=1;strokeWidth=2;" edge="1" parent="ppMfh8vbf9BlGN09Ze4M-13" target="ppMfh8vbf9BlGN09Ze4M-1">
          <mxGeometry relative="1" as="geometry">
            <mxPoint x="100" y="210" as="sourcePoint" />
          </mxGeometry>
        </mxCell>
        <mxCell id="ppMfh8vbf9BlGN09Ze4M-7" value="LOAD_IR" style="edgeLabel;html=1;align=center;verticalAlign=middle;resizable=0;points=[];" vertex="1" connectable="0" parent="ppMfh8vbf9BlGN09Ze4M-4">
          <mxGeometry relative="1" as="geometry">
            <mxPoint as="offset" />
          </mxGeometry>
        </mxCell>
        <mxCell id="ppMfh8vbf9BlGN09Ze4M-11" value="" style="group" vertex="1" connectable="0" parent="ppMfh8vbf9BlGN09Ze4M-13">
          <mxGeometry x="80" width="40" height="160" as="geometry" />
        </mxCell>
        <mxCell id="ppMfh8vbf9BlGN09Ze4M-1" value="CURRENT_PC" style="rounded=0;whiteSpace=wrap;html=1;flipV=0;horizontal=1;textDirection=vertical-lr;" vertex="1" parent="ppMfh8vbf9BlGN09Ze4M-11">
          <mxGeometry width="40" height="160" as="geometry" />
        </mxCell>
        <mxCell id="ppMfh8vbf9BlGN09Ze4M-10" value="" style="triangle;whiteSpace=wrap;html=1;rotation=-90;" vertex="1" parent="ppMfh8vbf9BlGN09Ze4M-11">
          <mxGeometry x="10" y="130" width="20" height="40" as="geometry" />
        </mxCell>
        <mxCell id="ppMfh8vbf9BlGN09Ze4M-17" style="edgeStyle=orthogonalEdgeStyle;rounded=0;orthogonalLoop=1;jettySize=auto;html=1;entryX=0;entryY=0.5;entryDx=0;entryDy=0;strokeWidth=2;" edge="1" parent="9GTtef4TDPM2n8hx87Pq-6" source="ppMfh8vbf9BlGN09Ze4M-15" target="qQvj4Ov0_is3PJ7aHH4r-1">
          <mxGeometry relative="1" as="geometry" />
        </mxCell>
        <mxCell id="ppMfh8vbf9BlGN09Ze4M-19" value="IN" style="edgeLabel;html=1;align=center;verticalAlign=middle;resizable=0;points=[];" vertex="1" connectable="0" parent="ppMfh8vbf9BlGN09Ze4M-17">
          <mxGeometry relative="1" as="geometry">
            <mxPoint as="offset" />
          </mxGeometry>
        </mxCell>
        <mxCell id="ppMfh8vbf9BlGN09Ze4M-18" style="edgeStyle=orthogonalEdgeStyle;rounded=0;orthogonalLoop=1;jettySize=auto;html=1;entryX=0.5;entryY=0;entryDx=0;entryDy=0;strokeWidth=2;" edge="1" parent="9GTtef4TDPM2n8hx87Pq-6" source="ppMfh8vbf9BlGN09Ze4M-15" target="4lJLPTDTkaCMhp8FfENX-2">
          <mxGeometry relative="1" as="geometry" />
        </mxCell>
        <mxCell id="ppMfh8vbf9BlGN09Ze4M-15" value="" style="shape=waypoint;sketch=0;size=6;pointerEvents=1;points=[];fillColor=default;resizable=0;rotatable=0;perimeter=centerPerimeter;snapToPoint=1;verticalAlign=top;labelBorderColor=none;" vertex="1" parent="9GTtef4TDPM2n8hx87Pq-6">
          <mxGeometry x="820" y="380" width="20" height="20" as="geometry" />
        </mxCell>
        <mxCell id="9GTtef4TDPM2n8hx87Pq-1" value="notes" style="" parent="0" />
        <mxCell id="9GTtef4TDPM2n8hx87Pq-5" value="COMMIT/TAG:&amp;nbsp;v1.0.0" style="text;html=1;align=center;verticalAlign=middle;resizable=0;points=[];autosize=1;strokeColor=none;fillColor=none;" parent="9GTtef4TDPM2n8hx87Pq-1" vertex="1">
          <mxGeometry x="30" y="40" width="140" height="30" as="geometry" />
        </mxCell>
        <mxCell id="ZxKTxUDWtvWTQ0BNolu--1" value="Branch" style="" parent="0" visible="0" />
        <mxCell id="ZxKTxUDWtvWTQ0BNolu--5" value="" style="endArrow=classic;html=1;rounded=0;entryX=0.25;entryY=0;entryDx=0;entryDy=0;strokeWidth=2;fillColor=#fa6800;strokeColor=#C73500;" parent="ZxKTxUDWtvWTQ0BNolu--1" edge="1">
          <mxGeometry width="50" height="50" relative="1" as="geometry">
            <mxPoint x="590" y="290" as="sourcePoint" />
            <mxPoint x="615" y="260" as="targetPoint" />
            <Array as="points">
              <mxPoint x="590" y="260" />
            </Array>
          </mxGeometry>
        </mxCell>
        <mxCell id="ZxKTxUDWtvWTQ0BNolu--6" value="ACTUAL_PC" style="edgeLabel;html=1;align=center;verticalAlign=middle;resizable=0;points=[];" parent="ZxKTxUDWtvWTQ0BNolu--5" vertex="1" connectable="0">
          <mxGeometry relative="1" as="geometry">
            <mxPoint y="37" as="offset" />
          </mxGeometry>
        </mxCell>
        <mxCell id="ZxKTxUDWtvWTQ0BNolu--7" style="edgeStyle=orthogonalEdgeStyle;rounded=0;orthogonalLoop=1;jettySize=auto;html=1;strokeWidth=2;entryX=0.75;entryY=0;entryDx=0;entryDy=0;fillColor=#fa6800;strokeColor=#C73500;" parent="ZxKTxUDWtvWTQ0BNolu--1" edge="1">
          <mxGeometry relative="1" as="geometry">
            <mxPoint x="615" y="140" as="targetPoint" />
            <Array as="points">
              <mxPoint x="400" y="155" />
              <mxPoint x="400" y="120" />
              <mxPoint x="590" y="120" />
              <mxPoint x="590" y="140" />
            </Array>
            <mxPoint x="300" y="155" as="sourcePoint" />
          </mxGeometry>
        </mxCell>
      </root>
    </mxGraphModel>
  </diagram>
  <diagram id="sx2vCBeN5CyHKBhgUF3z" name="Computer">
    <mxGraphModel dx="674" dy="379" grid="1" gridSize="10" guides="1" tooltips="1" connect="1" arrows="1" fold="1" page="1" pageScale="1" pageWidth="850" pageHeight="1100" math="0" shadow="0">
      <root>
        <mxCell id="0" />
        <mxCell id="1" parent="0" />
        <mxCell id="iYFXdImg051Si25wZMi7-3" value="" style="edgeStyle=orthogonalEdgeStyle;rounded=0;orthogonalLoop=1;jettySize=auto;html=1;exitX=1;exitY=0.25;exitDx=0;exitDy=0;entryX=0;entryY=0.25;entryDx=0;entryDy=0;strokeWidth=2;startArrow=classic;startFill=1;" edge="1" parent="1" source="iYFXdImg051Si25wZMi7-1" target="iYFXdImg051Si25wZMi7-2">
          <mxGeometry relative="1" as="geometry" />
        </mxCell>
        <mxCell id="iYFXdImg051Si25wZMi7-4" value="DMU" style="edgeLabel;html=1;align=center;verticalAlign=middle;resizable=0;points=[];" vertex="1" connectable="0" parent="iYFXdImg051Si25wZMi7-3">
          <mxGeometry relative="1" as="geometry">
            <mxPoint as="offset" />
          </mxGeometry>
        </mxCell>
        <mxCell id="iYFXdImg051Si25wZMi7-5" style="edgeStyle=orthogonalEdgeStyle;rounded=0;orthogonalLoop=1;jettySize=auto;html=1;exitX=0;exitY=0.75;exitDx=0;exitDy=0;entryX=1;entryY=0.75;entryDx=0;entryDy=0;strokeWidth=2;" edge="1" parent="1" source="iYFXdImg051Si25wZMi7-2" target="iYFXdImg051Si25wZMi7-1">
          <mxGeometry relative="1" as="geometry" />
        </mxCell>
        <mxCell id="iYFXdImg051Si25wZMi7-6" value="IMU" style="edgeLabel;html=1;align=center;verticalAlign=middle;resizable=0;points=[];" vertex="1" connectable="0" parent="iYFXdImg051Si25wZMi7-5">
          <mxGeometry relative="1" as="geometry">
            <mxPoint as="offset" />
          </mxGeometry>
        </mxCell>
        <mxCell id="iYFXdImg051Si25wZMi7-1" value="CORE" style="whiteSpace=wrap;html=1;aspect=fixed;" vertex="1" parent="1">
          <mxGeometry x="120" y="120" width="80" height="80" as="geometry" />
        </mxCell>
        <mxCell id="iYFXdImg051Si25wZMi7-2" value="Dual Ported Mem" style="whiteSpace=wrap;html=1;fontSize=12;" vertex="1" parent="1">
          <mxGeometry x="320" y="120" width="80" height="80" as="geometry" />
        </mxCell>
      </root>
    </mxGraphModel>
  </diagram>
  <diagram id="AG_NBdKjpXmDVMQM9QM_" name="Pipeline">
    <mxGraphModel dx="977" dy="549" grid="1" gridSize="10" guides="1" tooltips="1" connect="1" arrows="1" fold="1" page="1" pageScale="1" pageWidth="827" pageHeight="1169" math="0" shadow="0">
      <root>
        <mxCell id="0" />
        <mxCell id="1" parent="0" />
        <mxCell id="h8olBnNE7X6nubOAH5xB-4" value="" style="edgeStyle=orthogonalEdgeStyle;rounded=0;orthogonalLoop=1;jettySize=auto;html=1;" parent="1" source="h8olBnNE7X6nubOAH5xB-2" target="h8olBnNE7X6nubOAH5xB-3" edge="1">
          <mxGeometry relative="1" as="geometry" />
        </mxCell>
        <mxCell id="h8olBnNE7X6nubOAH5xB-2" value="FETCH" style="ellipse;whiteSpace=wrap;html=1;aspect=fixed;" parent="1" vertex="1">
          <mxGeometry x="120" y="80" width="80" height="80" as="geometry" />
        </mxCell>
        <mxCell id="h8olBnNE7X6nubOAH5xB-6" value="" style="edgeStyle=orthogonalEdgeStyle;rounded=0;orthogonalLoop=1;jettySize=auto;html=1;" parent="1" source="h8olBnNE7X6nubOAH5xB-3" target="h8olBnNE7X6nubOAH5xB-5" edge="1">
          <mxGeometry relative="1" as="geometry" />
        </mxCell>
        <mxCell id="h8olBnNE7X6nubOAH5xB-3" value="DECODE" style="ellipse;whiteSpace=wrap;html=1;aspect=fixed;" parent="1" vertex="1">
          <mxGeometry x="280" y="80" width="80" height="80" as="geometry" />
        </mxCell>
        <mxCell id="h8olBnNE7X6nubOAH5xB-8" value="" style="edgeStyle=orthogonalEdgeStyle;rounded=0;orthogonalLoop=1;jettySize=auto;html=1;" parent="1" source="h8olBnNE7X6nubOAH5xB-5" target="h8olBnNE7X6nubOAH5xB-7" edge="1">
          <mxGeometry relative="1" as="geometry" />
        </mxCell>
        <mxCell id="h8olBnNE7X6nubOAH5xB-5" value="EXECUTE" style="ellipse;whiteSpace=wrap;html=1;aspect=fixed;" parent="1" vertex="1">
          <mxGeometry x="440" y="80" width="80" height="80" as="geometry" />
        </mxCell>
        <mxCell id="13qO6xQEwtajRHdO8ch1-1" style="edgeStyle=orthogonalEdgeStyle;rounded=0;orthogonalLoop=1;jettySize=auto;html=1;entryX=0.5;entryY=0;entryDx=0;entryDy=0;" parent="1" source="h8olBnNE7X6nubOAH5xB-7" target="h8olBnNE7X6nubOAH5xB-2" edge="1">
          <mxGeometry relative="1" as="geometry">
            <Array as="points">
              <mxPoint x="640" y="60" />
              <mxPoint x="160" y="60" />
            </Array>
          </mxGeometry>
        </mxCell>
        <mxCell id="h8olBnNE7X6nubOAH5xB-7" value="WRITEBACK" style="ellipse;whiteSpace=wrap;html=1;aspect=fixed;" parent="1" vertex="1">
          <mxGeometry x="600" y="80" width="80" height="80" as="geometry" />
        </mxCell>
        <mxCell id="wtjiiLRglj-a28GEFqmU-1" style="edgeStyle=orthogonalEdgeStyle;rounded=0;orthogonalLoop=1;jettySize=auto;html=1;exitX=0.5;exitY=1;exitDx=0;exitDy=0;entryX=0.5;entryY=0;entryDx=0;entryDy=0;" edge="1" parent="1" source="h8olBnNE7X6nubOAH5xB-7" target="wtjiiLRglj-a28GEFqmU-7">
          <mxGeometry relative="1" as="geometry" />
        </mxCell>
        <mxCell id="wtjiiLRglj-a28GEFqmU-2" value="debug_wait" style="edgeLabel;html=1;align=center;verticalAlign=middle;resizable=0;points=[];" vertex="1" connectable="0" parent="wtjiiLRglj-a28GEFqmU-1">
          <mxGeometry relative="1" as="geometry">
            <mxPoint as="offset" />
          </mxGeometry>
        </mxCell>
        <mxCell id="wtjiiLRglj-a28GEFqmU-3" style="edgeStyle=orthogonalEdgeStyle;rounded=0;orthogonalLoop=1;jettySize=auto;html=1;exitX=0;exitY=1;exitDx=0;exitDy=0;entryX=1;entryY=1;entryDx=0;entryDy=0;" edge="1" parent="1" source="h8olBnNE7X6nubOAH5xB-5" target="h8olBnNE7X6nubOAH5xB-5">
          <mxGeometry relative="1" as="geometry">
            <Array as="points">
              <mxPoint x="452" y="180" />
              <mxPoint x="508" y="180" />
            </Array>
          </mxGeometry>
        </mxCell>
        <mxCell id="wtjiiLRglj-a28GEFqmU-4" value="¬dmu_ready" style="edgeLabel;html=1;align=center;verticalAlign=middle;resizable=0;points=[];" vertex="1" connectable="0" parent="wtjiiLRglj-a28GEFqmU-3">
          <mxGeometry relative="1" as="geometry">
            <mxPoint as="offset" />
          </mxGeometry>
        </mxCell>
        <mxCell id="wtjiiLRglj-a28GEFqmU-5" style="edgeStyle=orthogonalEdgeStyle;rounded=0;orthogonalLoop=1;jettySize=auto;html=1;exitX=0;exitY=1;exitDx=0;exitDy=0;entryX=1;entryY=1;entryDx=0;entryDy=0;" edge="1" parent="1" source="h8olBnNE7X6nubOAH5xB-3" target="h8olBnNE7X6nubOAH5xB-3">
          <mxGeometry relative="1" as="geometry">
            <Array as="points">
              <mxPoint x="292" y="180" />
              <mxPoint x="348" y="180" />
            </Array>
          </mxGeometry>
        </mxCell>
        <mxCell id="wtjiiLRglj-a28GEFqmU-6" value="¬imu_ready" style="edgeLabel;html=1;align=center;verticalAlign=middle;resizable=0;points=[];" vertex="1" connectable="0" parent="wtjiiLRglj-a28GEFqmU-5">
          <mxGeometry relative="1" as="geometry">
            <mxPoint as="offset" />
          </mxGeometry>
        </mxCell>
        <mxCell id="wtjiiLRglj-a28GEFqmU-10" style="edgeStyle=orthogonalEdgeStyle;rounded=0;orthogonalLoop=1;jettySize=auto;html=1;" edge="1" parent="1" source="wtjiiLRglj-a28GEFqmU-7" target="h8olBnNE7X6nubOAH5xB-2">
          <mxGeometry relative="1" as="geometry">
            <mxPoint x="720" y="40" as="targetPoint" />
            <Array as="points">
              <mxPoint x="700" y="280" />
              <mxPoint x="700" y="30" />
              <mxPoint x="160" y="30" />
            </Array>
          </mxGeometry>
        </mxCell>
        <mxCell id="wtjiiLRglj-a28GEFqmU-11" style="edgeStyle=orthogonalEdgeStyle;rounded=0;orthogonalLoop=1;jettySize=auto;html=1;" edge="1" parent="1" target="wtjiiLRglj-a28GEFqmU-7">
          <mxGeometry relative="1" as="geometry">
            <mxPoint x="540" y="280" as="sourcePoint" />
          </mxGeometry>
        </mxCell>
        <mxCell id="wtjiiLRglj-a28GEFqmU-7" value="WAIT" style="ellipse;whiteSpace=wrap;html=1;aspect=fixed;" vertex="1" parent="1">
          <mxGeometry x="600" y="240" width="80" height="80" as="geometry" />
        </mxCell>
        <mxCell id="wtjiiLRglj-a28GEFqmU-8" style="edgeStyle=orthogonalEdgeStyle;rounded=0;orthogonalLoop=1;jettySize=auto;html=1;exitX=0;exitY=1;exitDx=0;exitDy=0;entryX=1;entryY=1;entryDx=0;entryDy=0;" edge="1" parent="1" source="wtjiiLRglj-a28GEFqmU-7" target="wtjiiLRglj-a28GEFqmU-7">
          <mxGeometry relative="1" as="geometry">
            <mxPoint x="612" y="310" as="sourcePoint" />
            <mxPoint x="668" y="310" as="targetPoint" />
            <Array as="points">
              <mxPoint x="612" y="340" />
              <mxPoint x="668" y="340" />
            </Array>
          </mxGeometry>
        </mxCell>
        <mxCell id="wtjiiLRglj-a28GEFqmU-9" value="debug_wait" style="edgeLabel;html=1;align=center;verticalAlign=middle;resizable=0;points=[];" vertex="1" connectable="0" parent="wtjiiLRglj-a28GEFqmU-8">
          <mxGeometry relative="1" as="geometry">
            <mxPoint as="offset" />
          </mxGeometry>
        </mxCell>
      </root>
    </mxGraphModel>
  </diagram>
  <diagram id="E7gRsWqMf2gKpTpH_n1w" name="Data path">
    <mxGraphModel dx="2266" dy="1896" grid="1" gridSize="10" guides="1" tooltips="1" connect="1" arrows="1" fold="1" page="1" pageScale="1" pageWidth="850" pageHeight="1100" math="0" shadow="0">
      <root>
        <mxCell id="0" />
        <mxCell id="1" parent="0" />
        <mxCell id="ZM_Wratt1rMTZlhj8B0u-18" style="edgeStyle=orthogonalEdgeStyle;rounded=0;orthogonalLoop=1;jettySize=auto;html=1;entryX=0;entryY=0.5;entryDx=0;entryDy=0;" parent="1" source="ZM_Wratt1rMTZlhj8B0u-1" target="ZM_Wratt1rMTZlhj8B0u-8" edge="1">
          <mxGeometry relative="1" as="geometry" />
        </mxCell>
        <mxCell id="ZM_Wratt1rMTZlhj8B0u-19" style="edgeStyle=orthogonalEdgeStyle;rounded=0;orthogonalLoop=1;jettySize=auto;html=1;entryX=0;entryY=0.5;entryDx=0;entryDy=0;" parent="1" source="ZM_Wratt1rMTZlhj8B0u-1" target="ZM_Wratt1rMTZlhj8B0u-11" edge="1">
          <mxGeometry relative="1" as="geometry" />
        </mxCell>
        <mxCell id="ZM_Wratt1rMTZlhj8B0u-20" style="edgeStyle=orthogonalEdgeStyle;rounded=0;orthogonalLoop=1;jettySize=auto;html=1;entryX=0;entryY=0.5;entryDx=0;entryDy=0;" parent="1" source="ZM_Wratt1rMTZlhj8B0u-1" target="ZM_Wratt1rMTZlhj8B0u-12" edge="1">
          <mxGeometry relative="1" as="geometry" />
        </mxCell>
        <mxCell id="ZM_Wratt1rMTZlhj8B0u-33" style="edgeStyle=orthogonalEdgeStyle;rounded=0;orthogonalLoop=1;jettySize=auto;html=1;entryX=0;entryY=0.75;entryDx=0;entryDy=0;" parent="1" source="ZM_Wratt1rMTZlhj8B0u-1" target="ZM_Wratt1rMTZlhj8B0u-31" edge="1">
          <mxGeometry relative="1" as="geometry" />
        </mxCell>
        <mxCell id="ZM_Wratt1rMTZlhj8B0u-1" value="ALU" style="rounded=0;whiteSpace=wrap;html=1;" parent="1" vertex="1">
          <mxGeometry x="240" y="40" width="80" height="160" as="geometry" />
        </mxCell>
        <mxCell id="ZM_Wratt1rMTZlhj8B0u-2" value="RD" style="rounded=0;whiteSpace=wrap;html=1;" parent="1" vertex="1">
          <mxGeometry x="560" y="40" width="80" height="160" as="geometry" />
        </mxCell>
        <mxCell id="ZM_Wratt1rMTZlhj8B0u-22" style="edgeStyle=orthogonalEdgeStyle;rounded=0;orthogonalLoop=1;jettySize=auto;html=1;" parent="1" source="ZM_Wratt1rMTZlhj8B0u-8" target="ZM_Wratt1rMTZlhj8B0u-2" edge="1">
          <mxGeometry relative="1" as="geometry" />
        </mxCell>
        <mxCell id="ZM_Wratt1rMTZlhj8B0u-8" value="MREAD" style="rounded=0;whiteSpace=wrap;html=1;" parent="1" vertex="1">
          <mxGeometry x="400" y="60" width="80" height="40" as="geometry" />
        </mxCell>
        <mxCell id="ZM_Wratt1rMTZlhj8B0u-23" style="edgeStyle=orthogonalEdgeStyle;rounded=0;orthogonalLoop=1;jettySize=auto;html=1;" parent="1" source="ZM_Wratt1rMTZlhj8B0u-11" target="ZM_Wratt1rMTZlhj8B0u-2" edge="1">
          <mxGeometry relative="1" as="geometry" />
        </mxCell>
        <mxCell id="ZM_Wratt1rMTZlhj8B0u-11" value="PC" style="rounded=0;whiteSpace=wrap;html=1;" parent="1" vertex="1">
          <mxGeometry x="400" y="120" width="80" height="40" as="geometry" />
        </mxCell>
        <mxCell id="ZM_Wratt1rMTZlhj8B0u-24" style="edgeStyle=orthogonalEdgeStyle;rounded=0;orthogonalLoop=1;jettySize=auto;html=1;" parent="1" source="ZM_Wratt1rMTZlhj8B0u-12" target="ZM_Wratt1rMTZlhj8B0u-2" edge="1">
          <mxGeometry relative="1" as="geometry" />
        </mxCell>
        <mxCell id="ZM_Wratt1rMTZlhj8B0u-12" value="CSR" style="rounded=0;whiteSpace=wrap;html=1;" parent="1" vertex="1">
          <mxGeometry x="400" y="180" width="80" height="40" as="geometry" />
        </mxCell>
        <mxCell id="ZM_Wratt1rMTZlhj8B0u-21" style="edgeStyle=orthogonalEdgeStyle;rounded=0;orthogonalLoop=1;jettySize=auto;html=1;" parent="1" source="ZM_Wratt1rMTZlhj8B0u-15" target="ZM_Wratt1rMTZlhj8B0u-2" edge="1">
          <mxGeometry relative="1" as="geometry">
            <Array as="points">
              <mxPoint x="520" y="30" />
              <mxPoint x="520" y="120" />
            </Array>
          </mxGeometry>
        </mxCell>
        <mxCell id="ZM_Wratt1rMTZlhj8B0u-15" value="" style="shape=waypoint;sketch=0;size=6;pointerEvents=1;points=[];fillColor=default;resizable=0;rotatable=0;perimeter=centerPerimeter;snapToPoint=1;rounded=0;" parent="1" vertex="1">
          <mxGeometry x="430" y="20" width="20" height="20" as="geometry" />
        </mxCell>
        <mxCell id="ZM_Wratt1rMTZlhj8B0u-17" style="edgeStyle=orthogonalEdgeStyle;rounded=0;orthogonalLoop=1;jettySize=auto;html=1;entryX=0.926;entryY=0.481;entryDx=0;entryDy=0;entryPerimeter=0;" parent="1" source="ZM_Wratt1rMTZlhj8B0u-1" target="ZM_Wratt1rMTZlhj8B0u-15" edge="1">
          <mxGeometry relative="1" as="geometry">
            <Array as="points">
              <mxPoint x="360" y="120" />
              <mxPoint x="360" y="30" />
            </Array>
          </mxGeometry>
        </mxCell>
        <mxCell id="ZM_Wratt1rMTZlhj8B0u-29" style="edgeStyle=orthogonalEdgeStyle;rounded=0;orthogonalLoop=1;jettySize=auto;html=1;entryX=0;entryY=0.25;entryDx=0;entryDy=0;" parent="1" source="ZM_Wratt1rMTZlhj8B0u-27" target="ZM_Wratt1rMTZlhj8B0u-1" edge="1">
          <mxGeometry relative="1" as="geometry" />
        </mxCell>
        <mxCell id="ZM_Wratt1rMTZlhj8B0u-27" value="RS1" style="rounded=0;whiteSpace=wrap;html=1;" parent="1" vertex="1">
          <mxGeometry x="-40" y="40" width="80" height="80" as="geometry" />
        </mxCell>
        <mxCell id="ZM_Wratt1rMTZlhj8B0u-30" style="edgeStyle=orthogonalEdgeStyle;rounded=0;orthogonalLoop=1;jettySize=auto;html=1;entryX=0;entryY=0.75;entryDx=0;entryDy=0;" parent="1" source="ZM_Wratt1rMTZlhj8B0u-28" target="ZM_Wratt1rMTZlhj8B0u-1" edge="1">
          <mxGeometry relative="1" as="geometry" />
        </mxCell>
        <mxCell id="3BPDM1_0-XmFQAvV0z-w-1" style="edgeStyle=orthogonalEdgeStyle;rounded=0;orthogonalLoop=1;jettySize=auto;html=1;entryX=0;entryY=0.25;entryDx=0;entryDy=0;" parent="1" source="ZM_Wratt1rMTZlhj8B0u-28" target="ZM_Wratt1rMTZlhj8B0u-31" edge="1">
          <mxGeometry relative="1" as="geometry">
            <Array as="points">
              <mxPoint x="170" y="160" />
              <mxPoint x="170" y="-30" />
            </Array>
          </mxGeometry>
        </mxCell>
        <mxCell id="ZM_Wratt1rMTZlhj8B0u-28" value="RS2" style="rounded=0;whiteSpace=wrap;html=1;" parent="1" vertex="1">
          <mxGeometry x="-40" y="120" width="80" height="80" as="geometry" />
        </mxCell>
        <mxCell id="ZM_Wratt1rMTZlhj8B0u-31" value="MWRITE" style="rounded=0;whiteSpace=wrap;html=1;" parent="1" vertex="1">
          <mxGeometry x="400" y="-40" width="80" height="40" as="geometry" />
        </mxCell>
        <mxCell id="3BPDM1_0-XmFQAvV0z-w-2" value="DECODER" style="rounded=0;whiteSpace=wrap;html=1;" parent="1" vertex="1">
          <mxGeometry x="-200" y="40" width="80" height="160" as="geometry" />
        </mxCell>
        <mxCell id="3BPDM1_0-XmFQAvV0z-w-3" style="edgeStyle=orthogonalEdgeStyle;rounded=0;orthogonalLoop=1;jettySize=auto;html=1;entryX=0;entryY=0.75;entryDx=0;entryDy=0;" parent="1" source="3BPDM1_0-XmFQAvV0z-w-2" target="ZM_Wratt1rMTZlhj8B0u-1" edge="1">
          <mxGeometry relative="1" as="geometry">
            <Array as="points">
              <mxPoint x="-80" y="120" />
              <mxPoint x="-80" y="230" />
              <mxPoint x="200" y="230" />
              <mxPoint x="200" y="160" />
            </Array>
          </mxGeometry>
        </mxCell>
      </root>
    </mxGraphModel>
  </diagram>
  <diagram id="JlsLvjyteid9ewW5AYRm" name="IMU/DMU-State machines">
    <mxGraphModel dx="1180" dy="663" grid="1" gridSize="10" guides="1" tooltips="1" connect="1" arrows="1" fold="1" page="1" pageScale="1" pageWidth="850" pageHeight="1100" math="0" shadow="0">
      <root>
        <mxCell id="0" />
        <mxCell id="1" parent="0" />
        <mxCell id="rnTdiD_jXcE4SVQF8e4C-7" value="Instruction Manager" style="text;html=1;align=center;verticalAlign=middle;resizable=0;points=[];autosize=1;strokeColor=none;fillColor=none;fontSize=20;" vertex="1" parent="1">
          <mxGeometry x="260" y="240" width="200" height="40" as="geometry" />
        </mxCell>
        <mxCell id="rnTdiD_jXcE4SVQF8e4C-8" value="" style="group" vertex="1" connectable="0" parent="1">
          <mxGeometry x="40" y="80" width="640" height="150" as="geometry" />
        </mxCell>
        <mxCell id="Ol2KyIk40uSOz89WjJZW-3" value="" style="edgeStyle=orthogonalEdgeStyle;rounded=0;orthogonalLoop=1;jettySize=auto;html=1;fontFamily=Helvetica;" parent="rnTdiD_jXcE4SVQF8e4C-8" source="Ol2KyIk40uSOz89WjJZW-1" target="Ol2KyIk40uSOz89WjJZW-2" edge="1">
          <mxGeometry relative="1" as="geometry" />
        </mxCell>
        <mxCell id="Ol2KyIk40uSOz89WjJZW-10" value="&lt;span style=&quot;white-space-collapse: preserve;&quot;&gt;fetch_next_instruction&lt;/span&gt;" style="edgeLabel;html=1;align=center;verticalAlign=bottom;resizable=0;points=[];labelPosition=center;verticalLabelPosition=top;labelBackgroundColor=none;fontColor=light-dark(#000000,#FFFFFF);fontFamily=Helvetica;fontSize=14;" parent="Ol2KyIk40uSOz89WjJZW-3" vertex="1" connectable="0">
          <mxGeometry relative="1" as="geometry">
            <mxPoint as="offset" />
          </mxGeometry>
        </mxCell>
        <mxCell id="Ol2KyIk40uSOz89WjJZW-1" value="IDLE" style="ellipse;whiteSpace=wrap;html=1;fontFamily=Helvetica;" parent="rnTdiD_jXcE4SVQF8e4C-8" vertex="1">
          <mxGeometry y="19.97" width="80" height="80" as="geometry" />
        </mxCell>
        <mxCell id="Ol2KyIk40uSOz89WjJZW-5" value="" style="edgeStyle=orthogonalEdgeStyle;rounded=0;orthogonalLoop=1;jettySize=auto;html=1;fontFamily=Helvetica;" parent="rnTdiD_jXcE4SVQF8e4C-8" source="Ol2KyIk40uSOz89WjJZW-2" target="Ol2KyIk40uSOz89WjJZW-4" edge="1">
          <mxGeometry relative="1" as="geometry" />
        </mxCell>
        <mxCell id="Ol2KyIk40uSOz89WjJZW-6" style="edgeStyle=orthogonalEdgeStyle;rounded=0;orthogonalLoop=1;jettySize=auto;html=1;entryX=0;entryY=0;entryDx=0;entryDy=0;exitX=1;exitY=0;exitDx=0;exitDy=0;fontFamily=Helvetica;" parent="rnTdiD_jXcE4SVQF8e4C-8" source="Ol2KyIk40uSOz89WjJZW-2" target="Ol2KyIk40uSOz89WjJZW-2" edge="1">
          <mxGeometry relative="1" as="geometry">
            <mxPoint x="470" y="-50.03" as="targetPoint" />
            <Array as="points">
              <mxPoint x="428" />
              <mxPoint x="372" />
            </Array>
          </mxGeometry>
        </mxCell>
        <mxCell id="Ol2KyIk40uSOz89WjJZW-7" value="&lt;span style=&quot;white-space-collapse: preserve;&quot;&gt;waitrequest&lt;/span&gt;" style="edgeLabel;html=1;align=center;verticalAlign=bottom;resizable=0;points=[];labelPosition=center;verticalLabelPosition=top;labelBackgroundColor=none;fontColor=light-dark(#000000,#FFFFFF);fontFamily=Helvetica;fontSize=14;" parent="Ol2KyIk40uSOz89WjJZW-6" vertex="1" connectable="0">
          <mxGeometry relative="1" as="geometry">
            <mxPoint as="offset" />
          </mxGeometry>
        </mxCell>
        <mxCell id="Ol2KyIk40uSOz89WjJZW-8" style="edgeStyle=orthogonalEdgeStyle;rounded=0;orthogonalLoop=1;jettySize=auto;html=1;entryX=0.5;entryY=1;entryDx=0;entryDy=0;fontFamily=Helvetica;exitX=0.5;exitY=1;exitDx=0;exitDy=0;" parent="rnTdiD_jXcE4SVQF8e4C-8" source="Ol2KyIk40uSOz89WjJZW-2" target="Ol2KyIk40uSOz89WjJZW-1" edge="1">
          <mxGeometry relative="1" as="geometry">
            <Array as="points">
              <mxPoint x="400" y="120" />
              <mxPoint x="40" y="120" />
            </Array>
          </mxGeometry>
        </mxCell>
        <mxCell id="Ol2KyIk40uSOz89WjJZW-11" value="&lt;span style=&quot;white-space-collapse: preserve;&quot;&gt;readdatavalid&lt;/span&gt;" style="edgeLabel;html=1;align=center;verticalAlign=top;resizable=0;points=[];labelPosition=center;verticalLabelPosition=bottom;labelBackgroundColor=none;fontColor=light-dark(#000000,#FFFFFF);fontFamily=Helvetica;fontSize=14;" parent="Ol2KyIk40uSOz89WjJZW-8" vertex="1" connectable="0">
          <mxGeometry relative="1" as="geometry">
            <mxPoint as="offset" />
          </mxGeometry>
        </mxCell>
        <mxCell id="Ol2KyIk40uSOz89WjJZW-2" value="FETCHING" style="ellipse;whiteSpace=wrap;html=1;fontFamily=Helvetica;" parent="rnTdiD_jXcE4SVQF8e4C-8" vertex="1">
          <mxGeometry x="360" y="19.97" width="80" height="80" as="geometry" />
        </mxCell>
        <mxCell id="Ol2KyIk40uSOz89WjJZW-9" style="edgeStyle=orthogonalEdgeStyle;rounded=0;orthogonalLoop=1;jettySize=auto;html=1;entryX=0.5;entryY=1;entryDx=0;entryDy=0;fontFamily=Helvetica;exitX=0.5;exitY=1;exitDx=0;exitDy=0;" parent="rnTdiD_jXcE4SVQF8e4C-8" source="Ol2KyIk40uSOz89WjJZW-4" target="Ol2KyIk40uSOz89WjJZW-1" edge="1">
          <mxGeometry relative="1" as="geometry">
            <Array as="points">
              <mxPoint x="600" y="150" />
              <mxPoint x="40" y="150" />
            </Array>
          </mxGeometry>
        </mxCell>
        <mxCell id="Ol2KyIk40uSOz89WjJZW-4" value="PENDING" style="ellipse;whiteSpace=wrap;html=1;fontFamily=Helvetica;" parent="rnTdiD_jXcE4SVQF8e4C-8" vertex="1">
          <mxGeometry x="560" y="19.97" width="80" height="80" as="geometry" />
        </mxCell>
        <mxCell id="d_Ag_zOO7INdNgqwDHiz-1" style="edgeStyle=orthogonalEdgeStyle;rounded=0;orthogonalLoop=1;jettySize=auto;html=1;entryX=0;entryY=0;entryDx=0;entryDy=0;exitX=1;exitY=0;exitDx=0;exitDy=0;fontFamily=Helvetica;" parent="rnTdiD_jXcE4SVQF8e4C-8" source="Ol2KyIk40uSOz89WjJZW-4" target="Ol2KyIk40uSOz89WjJZW-4" edge="1">
          <mxGeometry relative="1" as="geometry">
            <Array as="points">
              <mxPoint x="628" />
              <mxPoint x="572" />
            </Array>
          </mxGeometry>
        </mxCell>
        <mxCell id="d_Ag_zOO7INdNgqwDHiz-2" value="&lt;span style=&quot;white-space-collapse: preserve;&quot;&gt;¬readdatavalid&lt;/span&gt;" style="edgeLabel;html=1;align=center;verticalAlign=bottom;resizable=0;points=[];fontColor=default;labelBackgroundColor=default;labelPosition=center;verticalLabelPosition=top;fontFamily=Helvetica;fontSize=14;" parent="d_Ag_zOO7INdNgqwDHiz-1" vertex="1" connectable="0">
          <mxGeometry relative="1" as="geometry">
            <mxPoint as="offset" />
          </mxGeometry>
        </mxCell>
        <mxCell id="rnTdiD_jXcE4SVQF8e4C-9" value="" style="group" vertex="1" connectable="0" parent="1">
          <mxGeometry x="40" y="360" width="640" height="269.97" as="geometry" />
        </mxCell>
        <mxCell id="jaqaTiSql472z-2NbU7X-1" value="" style="edgeStyle=orthogonalEdgeStyle;rounded=0;orthogonalLoop=1;jettySize=auto;html=1;fontFamily=Helvetica;" edge="1" source="jaqaTiSql472z-2NbU7X-3" target="jaqaTiSql472z-2NbU7X-9" parent="rnTdiD_jXcE4SVQF8e4C-9">
          <mxGeometry relative="1" as="geometry" />
        </mxCell>
        <mxCell id="jaqaTiSql472z-2NbU7X-2" value="&lt;span style=&quot;white-space-collapse: preserve;&quot;&gt;read&lt;/span&gt;" style="edgeLabel;html=1;align=center;verticalAlign=bottom;resizable=0;points=[];labelPosition=center;verticalLabelPosition=top;labelBackgroundColor=none;fontColor=light-dark(#000000,#FFFFFF);fontFamily=Helvetica;fontSize=14;" vertex="1" connectable="0" parent="jaqaTiSql472z-2NbU7X-1">
          <mxGeometry relative="1" as="geometry">
            <mxPoint as="offset" />
          </mxGeometry>
        </mxCell>
        <mxCell id="rnTdiD_jXcE4SVQF8e4C-3" value="" style="edgeStyle=orthogonalEdgeStyle;rounded=0;orthogonalLoop=1;jettySize=auto;html=1;endArrow=none;endFill=0;" edge="1" parent="rnTdiD_jXcE4SVQF8e4C-9" source="jaqaTiSql472z-2NbU7X-3">
          <mxGeometry relative="1" as="geometry">
            <mxPoint x="80" y="40" as="targetPoint" />
            <Array as="points">
              <mxPoint x="40" y="40" />
            </Array>
          </mxGeometry>
        </mxCell>
        <mxCell id="jaqaTiSql472z-2NbU7X-3" value="IDLE" style="ellipse;whiteSpace=wrap;html=1;fontFamily=Helvetica;" vertex="1" parent="rnTdiD_jXcE4SVQF8e4C-9">
          <mxGeometry y="139.94" width="80" height="80" as="geometry" />
        </mxCell>
        <mxCell id="jaqaTiSql472z-2NbU7X-4" value="" style="edgeStyle=orthogonalEdgeStyle;rounded=0;orthogonalLoop=1;jettySize=auto;html=1;fontFamily=Helvetica;" edge="1" source="jaqaTiSql472z-2NbU7X-9" target="jaqaTiSql472z-2NbU7X-11" parent="rnTdiD_jXcE4SVQF8e4C-9">
          <mxGeometry relative="1" as="geometry" />
        </mxCell>
        <mxCell id="jaqaTiSql472z-2NbU7X-5" style="edgeStyle=orthogonalEdgeStyle;rounded=0;orthogonalLoop=1;jettySize=auto;html=1;entryX=0;entryY=0;entryDx=0;entryDy=0;exitX=1;exitY=0;exitDx=0;exitDy=0;fontFamily=Helvetica;" edge="1" source="jaqaTiSql472z-2NbU7X-9" target="jaqaTiSql472z-2NbU7X-9" parent="rnTdiD_jXcE4SVQF8e4C-9">
          <mxGeometry relative="1" as="geometry">
            <mxPoint x="470" y="69.94" as="targetPoint" />
            <Array as="points">
              <mxPoint x="428" y="119.97000000000003" />
              <mxPoint x="372" y="119.97000000000003" />
            </Array>
          </mxGeometry>
        </mxCell>
        <mxCell id="jaqaTiSql472z-2NbU7X-6" value="&lt;span style=&quot;white-space-collapse: preserve;&quot;&gt;waitrequest&lt;/span&gt;" style="edgeLabel;html=1;align=center;verticalAlign=bottom;resizable=0;points=[];labelPosition=center;verticalLabelPosition=top;labelBackgroundColor=none;fontColor=light-dark(#000000,#FFFFFF);fontFamily=Helvetica;fontSize=14;" vertex="1" connectable="0" parent="jaqaTiSql472z-2NbU7X-5">
          <mxGeometry relative="1" as="geometry">
            <mxPoint as="offset" />
          </mxGeometry>
        </mxCell>
        <mxCell id="jaqaTiSql472z-2NbU7X-7" style="edgeStyle=orthogonalEdgeStyle;rounded=0;orthogonalLoop=1;jettySize=auto;html=1;entryX=0.5;entryY=1;entryDx=0;entryDy=0;fontFamily=Helvetica;exitX=0.5;exitY=1;exitDx=0;exitDy=0;" edge="1" source="jaqaTiSql472z-2NbU7X-9" target="jaqaTiSql472z-2NbU7X-3" parent="rnTdiD_jXcE4SVQF8e4C-9">
          <mxGeometry relative="1" as="geometry">
            <Array as="points">
              <mxPoint x="400" y="239.97000000000003" />
              <mxPoint x="40" y="239.97000000000003" />
            </Array>
          </mxGeometry>
        </mxCell>
        <mxCell id="jaqaTiSql472z-2NbU7X-8" value="&lt;span style=&quot;white-space-collapse: preserve;&quot;&gt;readdatavalid&lt;/span&gt;" style="edgeLabel;html=1;align=center;verticalAlign=top;resizable=0;points=[];labelPosition=center;verticalLabelPosition=bottom;labelBackgroundColor=none;fontColor=light-dark(#000000,#FFFFFF);fontFamily=Helvetica;fontSize=14;" vertex="1" connectable="0" parent="jaqaTiSql472z-2NbU7X-7">
          <mxGeometry relative="1" as="geometry">
            <mxPoint as="offset" />
          </mxGeometry>
        </mxCell>
        <mxCell id="jaqaTiSql472z-2NbU7X-9" value="FETCHING" style="ellipse;whiteSpace=wrap;html=1;fontFamily=Helvetica;" vertex="1" parent="rnTdiD_jXcE4SVQF8e4C-9">
          <mxGeometry x="360" y="139.94" width="80" height="80" as="geometry" />
        </mxCell>
        <mxCell id="jaqaTiSql472z-2NbU7X-10" style="edgeStyle=orthogonalEdgeStyle;rounded=0;orthogonalLoop=1;jettySize=auto;html=1;entryX=0.5;entryY=1;entryDx=0;entryDy=0;fontFamily=Helvetica;exitX=0.5;exitY=1;exitDx=0;exitDy=0;" edge="1" source="jaqaTiSql472z-2NbU7X-11" target="jaqaTiSql472z-2NbU7X-3" parent="rnTdiD_jXcE4SVQF8e4C-9">
          <mxGeometry relative="1" as="geometry">
            <Array as="points">
              <mxPoint x="600" y="269.97" />
              <mxPoint x="40" y="269.97" />
            </Array>
          </mxGeometry>
        </mxCell>
        <mxCell id="jaqaTiSql472z-2NbU7X-11" value="PENDING" style="ellipse;whiteSpace=wrap;html=1;fontFamily=Helvetica;" vertex="1" parent="rnTdiD_jXcE4SVQF8e4C-9">
          <mxGeometry x="560" y="139.94" width="80" height="80" as="geometry" />
        </mxCell>
        <mxCell id="jaqaTiSql472z-2NbU7X-12" style="edgeStyle=orthogonalEdgeStyle;rounded=0;orthogonalLoop=1;jettySize=auto;html=1;entryX=0;entryY=0;entryDx=0;entryDy=0;exitX=1;exitY=0;exitDx=0;exitDy=0;fontFamily=Helvetica;" edge="1" source="jaqaTiSql472z-2NbU7X-11" target="jaqaTiSql472z-2NbU7X-11" parent="rnTdiD_jXcE4SVQF8e4C-9">
          <mxGeometry relative="1" as="geometry">
            <Array as="points">
              <mxPoint x="628" y="119.97000000000003" />
              <mxPoint x="572" y="119.97000000000003" />
            </Array>
          </mxGeometry>
        </mxCell>
        <mxCell id="jaqaTiSql472z-2NbU7X-13" value="&lt;span style=&quot;white-space-collapse: preserve;&quot;&gt;¬readdatavalid&lt;/span&gt;" style="edgeLabel;html=1;align=center;verticalAlign=bottom;resizable=0;points=[];fontColor=default;labelBackgroundColor=default;labelPosition=center;verticalLabelPosition=top;fontFamily=Helvetica;fontSize=14;" vertex="1" connectable="0" parent="jaqaTiSql472z-2NbU7X-12">
          <mxGeometry relative="1" as="geometry">
            <mxPoint as="offset" />
          </mxGeometry>
        </mxCell>
        <mxCell id="jaqaTiSql472z-2NbU7X-14" value="WRITE" style="ellipse;whiteSpace=wrap;html=1;fontFamily=Helvetica;" vertex="1" parent="rnTdiD_jXcE4SVQF8e4C-9">
          <mxGeometry x="360" width="80" height="80" as="geometry" />
        </mxCell>
        <mxCell id="jaqaTiSql472z-2NbU7X-16" style="edgeStyle=orthogonalEdgeStyle;rounded=0;orthogonalLoop=1;jettySize=auto;html=1;exitX=0;exitY=1;exitDx=0;exitDy=0;entryX=1;entryY=1;entryDx=0;entryDy=0;" edge="1" parent="rnTdiD_jXcE4SVQF8e4C-9" source="jaqaTiSql472z-2NbU7X-14" target="jaqaTiSql472z-2NbU7X-14">
          <mxGeometry relative="1" as="geometry">
            <Array as="points">
              <mxPoint x="372" y="100" />
              <mxPoint x="428" y="100" />
            </Array>
          </mxGeometry>
        </mxCell>
        <mxCell id="rnTdiD_jXcE4SVQF8e4C-4" style="edgeStyle=orthogonalEdgeStyle;rounded=0;orthogonalLoop=1;jettySize=auto;html=1;" edge="1" parent="rnTdiD_jXcE4SVQF8e4C-9" target="jaqaTiSql472z-2NbU7X-14">
          <mxGeometry relative="1" as="geometry">
            <mxPoint x="80" y="40" as="sourcePoint" />
          </mxGeometry>
        </mxCell>
        <mxCell id="rnTdiD_jXcE4SVQF8e4C-5" value="write" style="edgeLabel;html=1;align=center;verticalAlign=bottom;resizable=0;points=[];fontSize=14;" vertex="1" connectable="0" parent="rnTdiD_jXcE4SVQF8e4C-4">
          <mxGeometry relative="1" as="geometry">
            <mxPoint as="offset" />
          </mxGeometry>
        </mxCell>
        <mxCell id="rnTdiD_jXcE4SVQF8e4C-10" value="Data Manager" style="text;html=1;align=center;verticalAlign=middle;resizable=0;points=[];autosize=1;strokeColor=none;fillColor=none;fontSize=20;" vertex="1" parent="1">
          <mxGeometry x="285" y="640" width="150" height="40" as="geometry" />
        </mxCell>
      </root>
    </mxGraphModel>
  </diagram>
  <diagram id="SZAx_SqoBJcESYMJ47G2" name="System">
    <mxGraphModel dx="1501" dy="1548" grid="1" gridSize="10" guides="1" tooltips="1" connect="1" arrows="1" fold="1" page="1" pageScale="1" pageWidth="827" pageHeight="1169" math="0" shadow="0">
      <root>
        <mxCell id="0" />
        <mxCell id="1" parent="0" />
        <mxCell id="Nnbd3_QBLv7Jj-xSeTyt-8" value="FPGA" style="rounded=0;whiteSpace=wrap;html=1;fillColor=none;fontColor=#333333;strokeColor=default;movable=0;resizable=0;rotatable=0;deletable=0;editable=0;locked=1;connectable=0;labelPosition=center;verticalLabelPosition=top;align=center;verticalAlign=bottom;" parent="1" vertex="1">
          <mxGeometry x="80" y="10" width="740" height="500" as="geometry" />
        </mxCell>
        <mxCell id="yTu13kFuIQBESadn3DpL-9" style="edgeStyle=orthogonalEdgeStyle;rounded=0;orthogonalLoop=1;jettySize=auto;html=1;" parent="1" edge="1">
          <mxGeometry relative="1" as="geometry">
            <mxPoint x="360" y="60" as="sourcePoint" />
            <mxPoint x="480" y="60" as="targetPoint" />
            <Array as="points">
              <mxPoint x="390" y="60" />
              <mxPoint x="390" y="60" />
            </Array>
          </mxGeometry>
        </mxCell>
        <mxCell id="yTu13kFuIQBESadn3DpL-10" value="DATA" style="edgeLabel;html=1;align=center;verticalAlign=middle;resizable=0;points=[];" parent="yTu13kFuIQBESadn3DpL-9" vertex="1" connectable="0">
          <mxGeometry relative="1" as="geometry">
            <mxPoint as="offset" />
          </mxGeometry>
        </mxCell>
        <mxCell id="yTu13kFuIQBESadn3DpL-11" style="edgeStyle=orthogonalEdgeStyle;rounded=0;orthogonalLoop=1;jettySize=auto;html=1;" parent="1" edge="1">
          <mxGeometry relative="1" as="geometry">
            <mxPoint x="480" y="50" as="sourcePoint" />
            <mxPoint x="360" y="50" as="targetPoint" />
            <Array as="points">
              <mxPoint x="380" y="50" />
              <mxPoint x="380" y="50" />
            </Array>
          </mxGeometry>
        </mxCell>
        <mxCell id="yTu13kFuIQBESadn3DpL-12" value="ADDR" style="edgeLabel;html=1;align=center;verticalAlign=middle;resizable=0;points=[];" parent="yTu13kFuIQBESadn3DpL-11" vertex="1" connectable="0">
          <mxGeometry relative="1" as="geometry">
            <mxPoint as="offset" />
          </mxGeometry>
        </mxCell>
        <mxCell id="yTu13kFuIQBESadn3DpL-13" style="edgeStyle=orthogonalEdgeStyle;rounded=0;orthogonalLoop=1;jettySize=auto;html=1;" parent="1" source="yTu13kFuIQBESadn3DpL-1" target="yTu13kFuIQBESadn3DpL-5" edge="1">
          <mxGeometry relative="1" as="geometry">
            <Array as="points">
              <mxPoint x="410" y="70" />
              <mxPoint x="410" y="70" />
            </Array>
          </mxGeometry>
        </mxCell>
        <mxCell id="yTu13kFuIQBESadn3DpL-14" value="CNT" style="edgeLabel;html=1;align=center;verticalAlign=middle;resizable=0;points=[];" parent="yTu13kFuIQBESadn3DpL-13" vertex="1" connectable="0">
          <mxGeometry relative="1" as="geometry">
            <mxPoint as="offset" />
          </mxGeometry>
        </mxCell>
        <mxCell id="Nnbd3_QBLv7Jj-xSeTyt-7" style="edgeStyle=orthogonalEdgeStyle;rounded=0;orthogonalLoop=1;jettySize=auto;html=1;startArrow=classic;startFill=1;" parent="1" source="yTu13kFuIQBESadn3DpL-1" target="yTu13kFuIQBESadn3DpL-2" edge="1">
          <mxGeometry relative="1" as="geometry" />
        </mxCell>
        <mxCell id="yTu13kFuIQBESadn3DpL-1" value="ICACHE" style="whiteSpace=wrap;html=1;aspect=fixed;sketch=1;curveFitting=1;jiggle=2;" parent="1" vertex="1">
          <mxGeometry x="480" y="40" width="80" height="80" as="geometry" />
        </mxCell>
        <mxCell id="yTu13kFuIQBESadn3DpL-2" value="DCACHE" style="whiteSpace=wrap;html=1;aspect=fixed;sketch=1;curveFitting=1;jiggle=2;" parent="1" vertex="1">
          <mxGeometry x="480" y="160" width="80" height="80" as="geometry" />
        </mxCell>
        <mxCell id="yTu13kFuIQBESadn3DpL-19" style="edgeStyle=orthogonalEdgeStyle;rounded=0;orthogonalLoop=1;jettySize=auto;html=1;startArrow=classic;startFill=1;strokeWidth=3;" parent="1" source="yTu13kFuIQBESadn3DpL-3" target="yTu13kFuIQBESadn3DpL-18" edge="1">
          <mxGeometry relative="1" as="geometry" />
        </mxCell>
        <mxCell id="yTu13kFuIQBESadn3DpL-3" value="2MB RAM" style="whiteSpace=wrap;html=1;aspect=fixed;sketch=1;curveFitting=1;jiggle=2;" parent="1" vertex="1">
          <mxGeometry x="-200" y="10" width="200" height="200" as="geometry" />
        </mxCell>
        <mxCell id="yTu13kFuIQBESadn3DpL-5" value="BUS" style="rounded=0;whiteSpace=wrap;html=1;textDirection=vertical-lr;" parent="1" vertex="1">
          <mxGeometry x="320" y="40" width="40" height="420" as="geometry" />
        </mxCell>
        <mxCell id="yTu13kFuIQBESadn3DpL-17" value="CNT=control signals&lt;br&gt;write/~read and req" style="text;html=1;align=center;verticalAlign=middle;resizable=0;points=[];autosize=1;strokeColor=none;fillColor=none;" parent="1" vertex="1">
          <mxGeometry x="670" y="20" width="140" height="40" as="geometry" />
        </mxCell>
        <mxCell id="Nnbd3_QBLv7Jj-xSeTyt-10" style="edgeStyle=orthogonalEdgeStyle;rounded=0;orthogonalLoop=1;jettySize=auto;html=1;startArrow=classic;startFill=1;strokeWidth=2;" parent="1" source="yTu13kFuIQBESadn3DpL-18" target="yTu13kFuIQBESadn3DpL-5" edge="1">
          <mxGeometry relative="1" as="geometry" />
        </mxCell>
        <mxCell id="yTu13kFuIQBESadn3DpL-18" value="DRAM CNT" style="rounded=0;whiteSpace=wrap;html=1;" parent="1" vertex="1">
          <mxGeometry x="120" y="80" width="120" height="60" as="geometry" />
        </mxCell>
        <mxCell id="Nnbd3_QBLv7Jj-xSeTyt-1" style="edgeStyle=orthogonalEdgeStyle;rounded=0;orthogonalLoop=1;jettySize=auto;html=1;startArrow=classic;startFill=1;" parent="1" edge="1">
          <mxGeometry relative="1" as="geometry">
            <mxPoint x="360" y="180" as="sourcePoint" />
            <mxPoint x="480" y="180" as="targetPoint" />
            <Array as="points">
              <mxPoint x="390" y="180" />
              <mxPoint x="390" y="180" />
            </Array>
          </mxGeometry>
        </mxCell>
        <mxCell id="Nnbd3_QBLv7Jj-xSeTyt-2" value="DATA" style="edgeLabel;html=1;align=center;verticalAlign=middle;resizable=0;points=[];" parent="Nnbd3_QBLv7Jj-xSeTyt-1" vertex="1" connectable="0">
          <mxGeometry relative="1" as="geometry">
            <mxPoint as="offset" />
          </mxGeometry>
        </mxCell>
        <mxCell id="Nnbd3_QBLv7Jj-xSeTyt-3" style="edgeStyle=orthogonalEdgeStyle;rounded=0;orthogonalLoop=1;jettySize=auto;html=1;" parent="1" edge="1">
          <mxGeometry relative="1" as="geometry">
            <mxPoint x="480" y="170" as="sourcePoint" />
            <mxPoint x="360" y="170" as="targetPoint" />
            <Array as="points">
              <mxPoint x="380" y="170" />
              <mxPoint x="380" y="170" />
            </Array>
          </mxGeometry>
        </mxCell>
        <mxCell id="Nnbd3_QBLv7Jj-xSeTyt-4" value="ADDR" style="edgeLabel;html=1;align=center;verticalAlign=middle;resizable=0;points=[];" parent="Nnbd3_QBLv7Jj-xSeTyt-3" vertex="1" connectable="0">
          <mxGeometry relative="1" as="geometry">
            <mxPoint as="offset" />
          </mxGeometry>
        </mxCell>
        <mxCell id="Nnbd3_QBLv7Jj-xSeTyt-5" style="edgeStyle=orthogonalEdgeStyle;rounded=0;orthogonalLoop=1;jettySize=auto;html=1;" parent="1" edge="1">
          <mxGeometry relative="1" as="geometry">
            <Array as="points">
              <mxPoint x="410" y="190" />
              <mxPoint x="410" y="190" />
            </Array>
            <mxPoint x="480" y="190" as="sourcePoint" />
            <mxPoint x="360" y="190" as="targetPoint" />
          </mxGeometry>
        </mxCell>
        <mxCell id="Nnbd3_QBLv7Jj-xSeTyt-6" value="CNT" style="edgeLabel;html=1;align=center;verticalAlign=middle;resizable=0;points=[];" parent="Nnbd3_QBLv7Jj-xSeTyt-5" vertex="1" connectable="0">
          <mxGeometry relative="1" as="geometry">
            <mxPoint as="offset" />
          </mxGeometry>
        </mxCell>
        <mxCell id="Nnbd3_QBLv7Jj-xSeTyt-13" style="edgeStyle=orthogonalEdgeStyle;rounded=0;orthogonalLoop=1;jettySize=auto;html=1;startArrow=classic;startFill=1;exitX=0;exitY=0.25;exitDx=0;exitDy=0;" parent="1" source="Nnbd3_QBLv7Jj-xSeTyt-11" target="yTu13kFuIQBESadn3DpL-1" edge="1">
          <mxGeometry relative="1" as="geometry" />
        </mxCell>
        <mxCell id="Nnbd3_QBLv7Jj-xSeTyt-14" style="edgeStyle=orthogonalEdgeStyle;rounded=0;orthogonalLoop=1;jettySize=auto;html=1;startArrow=classic;startFill=1;exitX=0;exitY=0.75;exitDx=0;exitDy=0;" parent="1" source="Nnbd3_QBLv7Jj-xSeTyt-11" target="yTu13kFuIQBESadn3DpL-2" edge="1">
          <mxGeometry relative="1" as="geometry" />
        </mxCell>
        <mxCell id="Nnbd3_QBLv7Jj-xSeTyt-11" value="CORE" style="whiteSpace=wrap;html=1;aspect=fixed;sketch=1;curveFitting=1;jiggle=2;" parent="1" vertex="1">
          <mxGeometry x="640" y="100" width="80" height="80" as="geometry" />
        </mxCell>
        <mxCell id="_aQj_42ov0IA-WdRDPqf-1" value="ROM" style="whiteSpace=wrap;html=1;aspect=fixed;sketch=1;curveFitting=1;jiggle=2;" parent="1" vertex="1">
          <mxGeometry x="480" y="280" width="80" height="80" as="geometry" />
        </mxCell>
        <mxCell id="_aQj_42ov0IA-WdRDPqf-2" style="edgeStyle=orthogonalEdgeStyle;rounded=0;orthogonalLoop=1;jettySize=auto;html=1;entryX=1;entryY=0.667;entryDx=0;entryDy=0;entryPerimeter=0;" parent="1" source="_aQj_42ov0IA-WdRDPqf-1" target="yTu13kFuIQBESadn3DpL-5" edge="1">
          <mxGeometry relative="1" as="geometry" />
        </mxCell>
      </root>
    </mxGraphModel>
  </diagram>
</mxfile>
